<svg width="130" height="24" viewBox="0 0 130 24" fill="none" xmlns="http://www.w3.org/2000/svg">
<path d="M8.27556 14.0164C8.27556 14.205 8.22687 14.3784 8.12951 14.5367C8.03963 14.6951 7.90107 14.8347 7.71382 14.9554C7.51909 15.076 7.26818 15.1741 6.96109 15.2495C6.66149 15.3174 6.30948 15.3513 5.90502 15.3513C5.56797 15.3513 5.23843 15.3174 4.91636 15.2495C4.60178 15.1816 4.32091 15.0723 4.07375 14.9214C3.82658 14.7781 3.62436 14.5895 3.46707 14.3558C3.30978 14.1144 3.21991 13.8278 3.19744 13.496H0.220215C0.220215 13.9938 0.340053 14.4915 0.579728 14.9893C0.826894 15.4794 1.18641 15.9169 1.65827 16.3016C2.13013 16.6937 2.71434 17.0104 3.41089 17.2518C4.11494 17.4931 4.92385 17.6138 5.83761 17.6138C6.66899 17.6138 7.42171 17.5233 8.0958 17.3423C8.76989 17.1537 9.34661 16.8935 9.82597 16.5617C10.2978 16.2299 10.6611 15.8377 10.9157 15.3851C11.1779 14.9251 11.309 14.4237 11.309 13.8806C11.309 13.2924 11.1779 12.7871 10.9157 12.3647C10.6611 11.9348 10.3053 11.5691 9.84843 11.2674C9.39155 10.9733 8.84854 10.7319 8.21938 10.5434C7.59024 10.3548 6.90866 10.2002 6.17466 10.0796C5.66534 10.0042 5.24592 9.91742 4.91636 9.81937C4.5868 9.7138 4.3284 9.5969 4.14116 9.46869C3.94642 9.34801 3.8116 9.21226 3.73671 9.06143C3.6618 8.90306 3.62436 8.73336 3.62436 8.55236C3.62436 8.37135 3.66555 8.20167 3.74794 8.04329C3.83782 7.87737 3.96514 7.73407 4.12992 7.61341C4.30967 7.47766 4.54187 7.37207 4.82648 7.29666C5.1111 7.22123 5.44439 7.18353 5.82637 7.18353C6.27577 7.18353 6.65775 7.24009 6.97233 7.35322C7.29438 7.46634 7.54904 7.61718 7.73629 7.80572C7.87111 7.94902 7.97222 8.11116 8.03963 8.29216C8.10704 8.46563 8.14074 8.65417 8.14074 8.8578H11.264C11.264 8.29217 11.1404 7.76802 10.8933 7.28534C10.6461 6.80267 10.2903 6.3841 9.82597 6.02964C9.3541 5.68272 8.78112 5.41121 8.10704 5.21512C7.43295 5.0115 6.67273 4.90968 5.82637 4.90968C5.01747 4.90968 4.29096 5.0115 3.64682 5.21512C3.0027 5.41875 2.45594 5.69402 2.00655 6.04095C1.55716 6.38787 1.21263 6.79136 0.972946 7.25141C0.733271 7.71145 0.613433 8.19413 0.613433 8.69943C0.613433 9.2198 0.729526 9.67985 0.961712 10.0796C1.20139 10.4793 1.53094 10.83 1.95037 11.1317C2.36981 11.4409 2.87162 11.7049 3.45584 11.9236C4.04753 12.1347 4.69916 12.312 5.41068 12.4553C5.97243 12.5608 6.4368 12.6663 6.8038 12.772C7.1708 12.8775 7.46665 12.9907 7.69135 13.1114C7.90856 13.2395 8.05836 13.3753 8.14074 13.5186C8.23062 13.6619 8.27556 13.8278 8.27556 14.0164ZM13.6071 22.0823H16.7304V16.3128C16.8727 16.4713 17.0225 16.6145 17.1798 16.7427C17.3371 16.8709 17.5019 16.9878 17.6741 17.0935C17.9662 17.2593 18.2808 17.3838 18.6179 17.4667C18.9624 17.5572 19.3369 17.6025 19.7414 17.6025C20.5053 17.6025 21.1831 17.4441 21.7748 17.1274C22.3666 16.8106 22.8646 16.3732 23.2691 15.815C23.666 15.2646 23.9656 14.6084 24.1678 13.8467C24.3775 13.085 24.4825 12.2592 24.4825 11.3692V11.1317C24.4825 10.204 24.3775 9.35933 24.1678 8.59762C23.9656 7.82835 23.6623 7.16844 23.2578 6.6179C22.8533 6.07489 22.3553 5.65632 21.7636 5.3622C21.172 5.06052 20.4903 4.90968 19.7188 4.90968C19.3444 4.90968 18.9923 4.95117 18.6628 5.03412C18.3407 5.10954 18.0449 5.2189 17.7753 5.3622C17.5506 5.48286 17.3409 5.62615 17.1461 5.79207C16.9513 5.95045 16.7716 6.13145 16.6069 6.33508L16.4945 5.13593H13.6071V22.0823ZM21.3591 11.1317V11.3692C21.3591 11.8746 21.3143 12.3535 21.2243 12.8059C21.1344 13.2509 20.9921 13.643 20.7974 13.9824C20.6027 14.3218 20.348 14.5895 20.0335 14.7857C19.7263 14.9817 19.3518 15.0798 18.91 15.0798C18.6328 15.0798 18.3819 15.0534 18.1572 15.0006C17.9325 14.9402 17.7341 14.8573 17.5617 14.7517C17.382 14.6385 17.221 14.5028 17.0787 14.3444C16.9438 14.1861 16.8278 14.0088 16.7304 13.8127V8.69943C16.8352 8.48825 16.9588 8.30348 17.1011 8.1451C17.251 7.98673 17.4232 7.85475 17.618 7.74916C17.7902 7.65866 17.9812 7.59078 18.1909 7.54553C18.4007 7.49274 18.6328 7.46634 18.8875 7.46634C19.3294 7.46634 19.7039 7.56061 20.0109 7.74916C20.3256 7.9377 20.584 8.19413 20.7862 8.51843C20.9809 8.85025 21.1232 9.24244 21.2131 9.69494C21.3105 10.1399 21.3591 10.6188 21.3591 11.1317ZM35.4202 4.90968C34.6037 4.90968 33.851 5.10954 33.162 5.50926C32.4729 5.90143 31.8812 6.44443 31.3868 7.13828L31.3644 6.86677L31.2409 5.13593H28.331V17.3762H31.4543V10.023C31.5966 9.67608 31.7764 9.37441 31.9936 9.11799C32.2108 8.86157 32.4729 8.65041 32.78 8.48449C33.0346 8.34119 33.323 8.23561 33.6451 8.16773C33.9747 8.09231 34.3416 8.0546 34.746 8.0546C35.1356 8.0546 35.5437 8.081 35.9707 8.13379C36.4051 8.17905 36.8282 8.25069 37.2402 8.34873L37.7008 5.21512C37.4537 5.13971 37.1279 5.07184 36.7234 5.0115C36.3264 4.94362 35.892 4.90968 35.4202 4.90968Z" fill="#66BB6A"/>
<path d="M40.6506 5.13594V7.70391H44.1109V14.8196H40.6506V17.3762H50.5596V14.8196H47.2679V5.13594H40.6506ZM43.8863 2.00234C43.8863 2.24367 43.9274 2.46993 44.0098 2.68109C44.0997 2.88472 44.2232 3.05818 44.3806 3.20148C44.5379 3.35231 44.725 3.46921 44.9422 3.55217C45.1669 3.63513 45.4142 3.67661 45.6838 3.67661C46.238 3.67661 46.6762 3.522 46.9982 3.21279C47.3278 2.89604 47.4925 2.49255 47.4925 2.00234C47.4925 1.51212 47.3278 1.11241 46.9982 0.803195C46.6762 0.486441 46.238 0.328064 45.6838 0.328064C45.4142 0.328064 45.1669 0.369543 44.9422 0.452503C44.725 0.535463 44.5379 0.648589 44.3806 0.791883C44.2232 0.942718 44.0997 1.12372 44.0098 1.33489C43.9274 1.53851 43.8863 1.761 43.8863 2.00234ZM52.9477 17.3762H56.0822V8.6768C56.1871 8.51089 56.3032 8.36005 56.4306 8.2243C56.5578 8.08854 56.7001 7.97165 56.8575 7.87361C57.0521 7.73785 57.2732 7.63604 57.5203 7.56816C57.775 7.50029 58.0521 7.46635 58.3517 7.46635C58.7112 7.46635 59.0332 7.50405 59.3178 7.57948C59.6025 7.64735 59.8459 7.77179 60.0481 7.95279C60.2504 8.13379 60.4038 8.38268 60.5088 8.69943C60.6211 9.00864 60.6773 9.40458 60.6773 9.88726V17.3762H63.8005V9.842C63.8005 8.95207 63.6957 8.1979 63.486 7.57948C63.2837 6.9535 62.9991 6.44067 62.6321 6.04095C62.2577 5.64878 61.8158 5.3622 61.3065 5.1812C60.7971 5.00019 60.2354 4.90969 59.6212 4.90969C59.1418 4.90969 58.6888 4.97757 58.2618 5.11331C57.8349 5.24907 57.4417 5.44515 57.0822 5.70158C56.8724 5.85241 56.674 6.0221 56.4867 6.21065C56.2994 6.39919 56.1272 6.60658 55.9699 6.83284L55.779 5.13594H52.9477V17.3762ZM71.806 2.13809H68.6828V5.13594H65.9078V7.45504H68.6828V13.0208C68.6828 13.8278 68.7876 14.5217 68.9973 15.1024C69.207 15.6756 69.5066 16.1469 69.8962 16.5165C70.2781 16.8935 70.7387 17.1726 71.2779 17.3536C71.8248 17.5271 72.4314 17.6138 73.0981 17.6138C73.4425 17.6138 73.7909 17.5949 74.1429 17.5572C74.5024 17.5271 74.8469 17.4818 75.1765 17.4215C75.5061 17.3612 75.8168 17.2858 76.1089 17.1953C76.4011 17.0972 76.6557 16.9841 76.8729 16.8559L76.5695 14.6951C76.4272 14.7328 76.255 14.7706 76.0527 14.8083C75.8581 14.846 75.6484 14.88 75.4236 14.9101C75.1914 14.9477 74.948 14.978 74.6934 15.0006C74.4461 15.0233 74.2027 15.0345 73.9631 15.0345C73.6336 15.0345 73.3339 14.9968 73.0644 14.9214C72.8022 14.846 72.5775 14.7178 72.3902 14.5367C72.203 14.3633 72.0569 14.1295 71.9521 13.8354C71.8547 13.5337 71.806 13.1604 71.806 12.7155V7.45504H76.3448V5.13594H71.806V2.13809ZM84.9345 2.13809H81.8113V5.13594H79.0363V7.45504H81.8113V13.0208C81.8113 13.8278 81.9161 14.5217 82.1258 15.1024C82.3355 15.6756 82.6351 16.1469 83.0247 16.5165C83.4066 16.8935 83.8672 17.1726 84.4066 17.3536C84.9533 17.5271 85.56 17.6138 86.2266 17.6138C86.5711 17.6138 86.9194 17.5949 87.2714 17.5572C87.6309 17.5271 87.9755 17.4818 88.305 17.4215C88.6346 17.3612 88.9454 17.2858 89.2375 17.1953C89.5296 17.0972 89.7842 16.9841 90.0014 16.8559L89.6981 14.6951C89.5558 14.7328 89.3835 14.7706 89.1812 14.8083C88.9866 14.846 88.7769 14.88 88.5522 14.9101C88.3199 14.9477 88.0766 14.978 87.8219 15.0006C87.5748 15.0233 87.3313 15.0345 87.0916 15.0345C86.7621 15.0345 86.4625 14.9968 86.1929 14.9214C85.9307 14.846 85.706 14.7178 85.5187 14.5367C85.3315 14.3633 85.1854 14.1295 85.0806 13.8354C84.9833 13.5337 84.9345 13.1604 84.9345 12.7155V7.45504H89.4734V5.13594H84.9345V2.13809Z" fill="#BA68C8"/>
<path d="M95.4903 15.5549C95.4903 16.1356 95.6851 16.6221 96.0745 17.0142C96.464 17.4064 96.9921 17.6025 97.6587 17.6025C98.3177 17.6025 98.842 17.4102 99.2315 17.0256C99.6284 16.6333 99.827 16.1431 99.827 15.5549C99.827 14.9666 99.6322 14.4727 99.2427 14.0729C98.8607 13.6732 98.3327 13.4734 97.6587 13.4734C96.977 13.4734 96.4453 13.6769 96.0633 14.0842C95.6813 14.484 95.4903 14.9741 95.4903 15.5549ZM106.293 5.13594V7.70391H109.754V14.8196H106.293V17.3762H116.203V14.8196H112.911V5.13594H106.293ZM109.529 2.00234C109.529 2.24367 109.57 2.46993 109.652 2.68109C109.742 2.88472 109.866 3.05818 110.023 3.20148C110.181 3.35231 110.368 3.46921 110.585 3.55217C110.81 3.63513 111.057 3.67661 111.326 3.67661C111.881 3.67661 112.319 3.522 112.641 3.21279C112.97 2.89604 113.135 2.49255 113.135 2.00234C113.135 1.51212 112.97 1.11241 112.641 0.803195C112.319 0.486441 111.881 0.328064 111.326 0.328064C111.057 0.328064 110.81 0.369543 110.585 0.452503C110.368 0.535463 110.181 0.648589 110.023 0.791883C109.866 0.942718 109.742 1.12372 109.652 1.33489C109.57 1.53851 109.529 1.761 109.529 2.00234ZM118.163 11.143V11.3805C118.163 12.278 118.291 13.1076 118.545 13.8694C118.8 14.6235 119.174 15.2796 119.669 15.8377C120.156 16.3958 120.755 16.8332 121.466 17.15C122.185 17.4592 123.002 17.6138 123.915 17.6138C124.822 17.6138 125.631 17.4592 126.343 17.15C127.054 16.8332 127.653 16.3958 128.14 15.8377C128.626 15.2796 128.998 14.6235 129.252 13.8694C129.506 13.1076 129.634 12.278 129.634 11.3805V11.143C129.634 10.253 129.506 9.43098 129.252 8.6768C128.998 7.91508 128.626 7.25518 128.14 6.69709C127.646 6.139 127.042 5.70158 126.331 5.38482C125.619 5.06807 124.807 4.90969 123.893 4.90969C122.98 4.90969 122.167 5.06807 121.456 5.38482C120.752 5.70158 120.156 6.139 119.669 6.69709C119.174 7.25518 118.8 7.91508 118.545 8.6768C118.291 9.43098 118.163 10.253 118.163 11.143ZM121.287 11.3805V11.143C121.287 10.6452 121.335 10.1738 121.433 9.72888C121.53 9.28391 121.683 8.89174 121.894 8.55236C122.103 8.21298 122.373 7.94525 122.703 7.74916C123.032 7.55308 123.429 7.45504 123.893 7.45504C124.365 7.45504 124.765 7.55308 125.096 7.74916C125.425 7.94525 125.695 8.21298 125.904 8.55236C126.107 8.89174 126.256 9.28391 126.353 9.72888C126.451 10.1738 126.499 10.6452 126.499 11.143V11.3805C126.499 11.8933 126.451 12.376 126.353 12.8285C126.256 13.2735 126.107 13.6619 125.904 13.9938C125.695 14.3331 125.425 14.6009 125.096 14.7969C124.765 14.993 124.372 15.091 123.915 15.091C123.444 15.091 123.04 14.993 122.703 14.7969C122.373 14.6009 122.103 14.3331 121.894 13.9938C121.683 13.6619 121.53 13.2735 121.433 12.8285C121.335 12.376 121.287 11.8933 121.287 11.3805Z" fill="#191919"/>
</svg>
